<svg xmlns="http://www.w3.org/2000/svg" width="500" height="180" viewBox="0 0 500 180"><rect width="500" height="180" fill="#1a0a2e" rx="8"/><text x="250" y="24" font-size="16" fill="#e879f9" text-anchor="middle" font-family="monospace" font-weight="bold">KART LINEUP</text><rect x="16" y="38" width="84" height="130" rx="6" fill="#2d1b4e" stroke="#4c1d95" stroke-width="1"/><rect x="38" y="48" width="40" height="40" rx="4" fill="#aaaaaa"/><text x="58" y="105" font-size="8" fill="#fff" text-anchor="middle" font-family="monospace" font-weight="bold">Sand</text><text x="58" y="115" font-size="8" fill="#fff" text-anchor="middle" font-family="monospace">Buggy</text><text x="58" y="130" font-size="7" fill="#a78bfa" text-anchor="middle" font-family="monospace">Spd:150 T:1.5</text><rect x="23" y="138" width="70" height="5" rx="2" fill="#1f1035"/><rect x="23" y="138" width="38" height="5" rx="2" fill="#e879f9"/><text x="58" y="155" font-size="7" fill="#22ff88" text-anchor="middle" font-family="monospace">Free</text><rect x="112" y="38" width="84" height="130" rx="6" fill="#2d1b4e" stroke="#4c1d95" stroke-width="1"/><rect x="134" y="48" width="40" height="40" rx="4" fill="#4488ff"/><text x="154" y="105" font-size="8" fill="#fff" text-anchor="middle" font-family="monospace" font-weight="bold">Dune</text><text x="154" y="115" font-size="8" fill="#fff" text-anchor="middle" font-family="monospace">Runner</text><text x="154" y="130" font-size="7" fill="#a78bfa" text-anchor="middle" font-family="monospace">Spd:180 T:1.8</text><rect x="119" y="138" width="70" height="5" rx="2" fill="#1f1035"/><rect x="119" y="138" width="45" height="5" rx="2" fill="#e879f9"/><text x="154" y="155" font-size="7" fill="#22ff88" text-anchor="middle" font-family="monospace">$50</text><rect x="208" y="38" width="84" height="130" rx="6" fill="#2d1b4e" stroke="#4c1d95" stroke-width="1"/><rect x="230" y="48" width="40" height="40" rx="4" fill="#44cc44"/><text x="250" y="105" font-size="8" fill="#fff" text-anchor="middle" font-family="monospace" font-weight="bold">Cactus</text><text x="250" y="115" font-size="8" fill="#fff" text-anchor="middle" font-family="monospace">Cruiser</text><text x="250" y="130" font-size="7" fill="#a78bfa" text-anchor="middle" font-family="monospace">Spd:210 T:2.2</text><rect x="215" y="138" width="70" height="5" rx="2" fill="#1f1035"/><rect x="215" y="138" width="53" height="5" rx="2" fill="#e879f9"/><text x="250" y="155" font-size="7" fill="#22ff88" text-anchor="middle" font-family="monospace">$120</text><rect x="304" y="38" width="84" height="130" rx="6" fill="#2d1b4e" stroke="#4c1d95" stroke-width="1"/><rect x="326" y="48" width="40" height="40" rx="4" fill="#ffaa00"/><text x="346" y="105" font-size="8" fill="#fff" text-anchor="middle" font-family="monospace" font-weight="bold">Oasis</text><text x="346" y="115" font-size="8" fill="#fff" text-anchor="middle" font-family="monospace">Racer</text><text x="346" y="130" font-size="7" fill="#a78bfa" text-anchor="middle" font-family="monospace">Spd:240 T:2.5</text><rect x="311" y="138" width="70" height="5" rx="2" fill="#1f1035"/><rect x="311" y="138" width="60" height="5" rx="2" fill="#e879f9"/><text x="346" y="155" font-size="7" fill="#22ff88" text-anchor="middle" font-family="monospace">$200</text><rect x="400" y="38" width="84" height="130" rx="6" fill="#2d1b4e" stroke="#4c1d95" stroke-width="1"/><rect x="422" y="48" width="40" height="40" rx="4" fill="#ff4444"/><text x="442" y="105" font-size="8" fill="#fff" text-anchor="middle" font-family="monospace" font-weight="bold">Desert</text><text x="442" y="115" font-size="8" fill="#fff" text-anchor="middle" font-family="monospace">Storm</text><text x="442" y="130" font-size="7" fill="#a78bfa" text-anchor="middle" font-family="monospace">Spd:280 T:3</text><rect x="407" y="138" width="70" height="5" rx="2" fill="#1f1035"/><rect x="407" y="138" width="70" height="5" rx="2" fill="#e879f9"/><text x="442" y="155" font-size="7" fill="#22ff88" text-anchor="middle" font-family="monospace">$350</text></svg>